<svg width="12" height="18" viewBox="0 0 12 18" fill="none" xmlns="http://www.w3.org/2000/svg">
  <path d="M11 9L11.6247 9.78087C11.8619 9.5911 12 9.30378 12 9C12 8.69622 11.8619 8.4089 11.6247 8.21913L11 9ZM0.375305 16.2191C-0.0559567 16.5641 -0.125878 17.1934 0.219132 17.6247C0.564141 18.056 1.19343 18.1259 1.6247 17.7809L0.375305 16.2191ZM1.62469 0.219131C1.19343 -0.125878 0.56414 -0.0559568 0.219131 0.375305C-0.125878 0.806567 -0.0559568 1.43586 0.375305 1.78087L1.62469 0.219131ZM10.3753 8.21913L0.375305 16.2191L1.6247 17.7809L11.6247 9.78087L10.3753 8.21913ZM0.375305 1.78087L10.3753 9.78087L11.6247 8.21913L1.62469 0.219131L0.375305 1.78087Z" fill="#D7AD45"/>
</svg>
